<?xml version="1.0" standalone="yes"?>
<svg width="400" height="400">
<title>RealDRAW</title>
<path style="fill:#00a9d9; stroke:none" d="M124 110 C124 110 29 151 29 206 C30 261 120 309 120 309 C120 309 72 261 71 231 C70 201 123 201 123 201 C123 201 74 205 74 180 C74 155 124 110 124 110 z"/>
<path style="fill:#00a9d9; stroke:none" d="M198 107 C198 107 127 128 127 165 C128 202 185 192 189 234 C193 275 147 306 147 306 C147 306 213 275 216 233 C219 191 161 200 153 164 C144 127 198 107 198 107 z"/>
<path style="fill:#00a9d9; stroke:none" d="M291.889 113 C291.889 113 231 172.939 231 223.736 C231 274.532 262.894 298.914 292.855 296.882 C323.783 293.835 352.778 255.229 343.113 229.831 C327.654 195.297 273.525 235.927 259.994 207.481 C246.463 179.035 291.889 113 291.889 113 C246.463 179.035 291.889 113 291.889 113 M262.881 252.27 C262.881 239.055 275.44 228.889 290.898 228.889 C305.389 228.889 317.949 239.055 317.949 252.27 C317.949 265.486 305.389 275.651 290.898 275.651 C275.44 275.651 262.881 265.486 262.881 252.27 z"/>
<path style="fill:#00a9d9; stroke:none" d="M163.963 313.24 C163.963 313.798 163.963 314.467 163.745 314.914 C163.527 315.36 163.09 315.583 162.871 315.806 C162.653 316.03 162.434 316.253 161.997 316.253 C161.561 316.476 161.124 316.476 161.124 316.476 C160.25 316.476 159.595 316.476 159.158 316.476 C158.503 316.476 157.847 316.476 157.41 316.253 C156.755 316.253 156.1 316.253 155.663 316.253 C155.008 316.253 154.352 316.253 153.697 316.253 C153.042 316.253 152.605 316.253 151.949 316.476 C151.294 316.476 150.639 316.476 149.983 316.699 C149.11 316.699 148.673 316.922 147.799 317.145 C147.144 317.145 146.488 317.369 145.833 317.592 C145.396 317.815 144.741 317.815 144.304 318.038 C143.867 318.261 143.649 318.484 143.43 318.484 C143.212 318.708 142.993 318.931 142.993 319.377 C142.775 319.824 142.775 320.047 142.775 320.493 L142.12 328.639 C141.901 331.652 141.464 334.776 141.246 337.789 C141.028 340.914 140.809 344.038 140.809 346.828 C140.809 347.274 140.809 347.944 140.809 348.613 C141.028 349.506 141.028 350.175 141.246 351.068 C141.246 351.738 141.246 352.407 141.464 352.854 C141.464 353.412 141.464 353.635 141.464 353.858 C141.464 354.304 141.464 354.974 141.246 355.42 C141.028 356.09 140.809 356.536 140.591 356.982 C140.372 357.429 139.935 357.875 139.498 358.098 C139.062 358.321 138.843 358.545 138.188 358.545 C137.751 358.545 137.314 358.545 137.096 358.321 C136.659 358.098 136.222 357.875 136.004 357.429 C135.567 357.206 135.348 356.759 135.13 356.313 C134.693 355.866 134.474 355.42 134.256 354.974 C134.038 354.304 134.038 353.635 133.819 353.077 C133.819 352.184 133.601 351.515 133.601 350.622 C133.601 349.952 133.601 349.06 133.601 348.39 C133.601 347.497 133.601 346.828 133.601 346.158 C133.601 345.377 133.601 344.038 133.601 342.476 C133.601 340.914 133.819 339.351 134.038 337.454 C134.256 335.669 134.474 333.884 134.474 332.098 C134.693 330.09 134.911 328.639 135.13 326.854 C135.348 325.291 135.348 323.952 135.567 322.613 C135.567 321.609 135.785 320.716 135.785 320.047 C135.348 320.27 134.474 320.27 133.601 320.27 C132.509 320.493 131.416 320.716 130.106 320.716 C128.795 320.939 127.266 321.163 125.737 321.386 C124.426 321.609 122.897 321.609 121.587 321.609 C121.368 321.609 120.931 321.609 120.276 321.609 C119.839 321.386 119.402 321.386 118.965 321.163 C118.31 320.939 118.092 320.716 117.655 320.493 C117.218 320.047 117 319.824 117 319.154 C117 318.931 117 318.931 117 318.931 C117 318.708 117 318.708 117 318.484 C117 318.038 117 317.592 117 317.145 C117.218 316.922 117.218 316.476 117.436 316.253 C117.655 315.806 117.873 315.583 118.092 315.36 C118.31 315.137 118.747 314.914 119.402 314.914 C120.494 314.467 121.587 314.244 123.116 314.021 C124.426 314.021 125.737 313.798 127.048 313.798 C127.484 313.798 127.921 313.798 128.577 313.575 C129.232 313.575 130.106 313.575 130.979 313.463 C131.853 313.24 133.164 313.24 134.038 313.017 C135.348 312.793 136.222 312.793 137.096 312.57 C138.188 312.347 139.062 312.124 139.935 312.124 C140.591 311.901 141.246 311.901 141.464 311.678 C142.775 311.454 144.086 311.231 145.396 311.008 C146.707 310.562 148.018 310.339 149.11 310.115 C150.639 309.669 151.949 309.446 153.042 309.223 C154.352 309.223 155.663 309 156.973 309 C157.192 309 157.41 309 157.629 309 C158.066 309 158.503 309 158.939 309.223 C159.376 309.223 159.813 309.223 160.468 309.223 C160.905 309.446 161.342 309.446 161.779 309.669 C162.216 309.892 162.434 310.115 162.871 310.339 C162.871 310.562 163.09 311.008 163.308 311.231 C163.527 311.678 163.745 312.124 163.745 312.347 C163.963 312.793 163.963 313.017 163.963 313.24 L163.963 313.24 M226.873 329.532 C226.873 330.09 226.655 330.536 226.436 331.206 C226.436 331.652 226 332.098 225.563 332.545 C225.126 332.991 224.907 333.437 224.252 333.884 C223.597 334.107 223.16 334.553 222.723 334.776 C221.631 335.446 220.539 335.892 219.228 336.339 C217.917 336.562 216.388 336.785 214.641 336.785 C213.33 336.785 212.238 336.562 211.146 336.339 C209.835 335.892 208.743 335.669 207.869 335.223 C207.432 336.562 206.777 337.789 206.122 339.575 C205.685 341.137 205.03 342.922 204.374 344.931 C204.156 345.154 204.156 345.489 204.156 345.935 C203.937 346.605 203.719 347.274 203.501 347.944 C203.282 348.613 203.064 349.283 202.845 349.952 C202.627 350.622 202.408 351.515 202.408 352.184 C202.19 352.854 201.971 353.3 201.753 353.858 C201.535 354.304 201.535 354.751 201.316 354.974 C200.879 356.759 200.224 357.875 199.35 358.545 C198.476 359.214 197.603 359.437 196.729 359.437 C195.637 359.437 194.545 358.991 193.671 358.321 C192.797 357.429 192.142 356.536 191.486 355.42 C190.831 354.304 190.394 353.077 189.957 351.738 C189.521 350.622 188.865 349.283 188.647 347.944 C188.21 346.828 187.991 345.489 187.555 344.261 C187.336 343.145 186.899 341.806 186.899 340.69 C186.899 340.467 186.681 340.021 186.681 339.798 C186.681 339.351 186.462 339.128 186.462 339.128 C186.462 339.128 186.244 339.351 186.026 339.798 C185.807 340.244 185.589 340.69 185.37 341.36 C185.152 342.03 185.152 342.699 184.715 343.592 C184.496 344.261 184.278 345.154 184.06 345.712 C183.623 346.605 183.623 347.274 183.404 347.944 C183.186 348.613 183.186 349.06 182.967 349.283 C182.749 349.952 182.531 350.845 182.094 351.738 C181.875 352.63 181.657 353.412 181.22 354.304 C180.783 355.197 180.346 356.09 180.128 356.759 C179.691 357.652 179.036 358.321 178.599 358.991 C178.38 359.66 177.725 360.107 177.288 360.553 C176.633 360.776 176.414 361 175.759 361 C174.885 361 174.012 360.776 173.138 360.107 C172.482 359.437 171.827 358.768 171.39 357.875 C170.735 356.09 169.861 353.858 169.424 351.738 C168.551 349.283 168.114 347.051 167.458 344.708 C167.022 342.253 166.585 339.798 166.366 337.454 C166.148 335.223 165.929 332.991 165.929 330.982 C165.929 329.309 166.366 328.193 166.803 327.3 C167.458 326.63 168.332 326.184 169.861 326.184 C170.298 326.184 170.953 326.407 171.39 326.854 C171.609 327.3 171.827 327.746 172.046 328.416 C172.264 329.085 172.482 329.866 172.701 330.759 C172.701 331.429 172.701 332.321 172.919 333.214 C172.919 333.884 172.919 334.776 172.919 335.446 C172.919 336.115 172.919 336.562 173.138 337.008 C173.138 337.789 173.138 338.682 173.356 339.798 C173.575 340.69 173.793 341.806 174.012 342.922 C174.23 344.038 174.448 345.154 174.667 346.158 C174.885 347.274 174.885 348.167 175.104 349.06 C175.322 349.952 175.541 350.622 175.759 351.068 C175.977 351.738 176.196 351.961 176.196 351.961 C176.414 351.961 176.633 351.738 176.633 351.291 C176.633 350.845 177.07 350.399 177.288 349.729 C177.507 348.836 177.943 347.944 178.162 347.051 C178.38 345.935 178.817 344.931 179.254 343.592 C179.691 342.476 180.128 341.137 180.346 340.021 C181.002 338.905 181.438 337.789 181.875 336.785 C182.094 335.669 182.531 334.33 182.967 333.214 C183.404 332.098 183.623 330.982 184.278 329.866 C184.496 329.532 184.715 329.309 184.933 328.862 C185.152 328.416 185.37 327.969 185.807 327.746 C186.244 327.3 186.681 327.077 186.899 326.854 C187.336 326.854 187.773 326.63 188.21 326.63 C189.957 326.63 190.613 327.746 190.831 329.643 C191.05 331.429 191.486 333.214 191.705 335 C192.142 337.008 192.142 338.459 192.579 340.021 C193.016 341.806 193.452 343.145 193.889 344.484 C194.108 345.712 194.326 347.051 194.763 347.944 C195.2 349.06 195.637 349.729 195.637 350.399 C196.074 350.845 196.292 351.068 196.511 351.068 C196.729 351.068 196.947 350.845 197.166 350.399 C197.384 349.952 197.603 349.283 197.821 348.39 C198.04 347.721 198.476 346.828 198.695 345.712 C198.913 344.931 198.913 343.815 199.35 342.922 C199.569 342.03 199.787 341.137 200.006 340.244 C200.224 339.351 200.442 338.682 200.661 338.236 C200.661 337.566 200.879 336.785 201.316 335.892 C201.535 335 201.971 334.107 202.19 332.991 C202.408 332.098 202.845 331.206 203.064 330.313 C203.501 329.532 203.937 328.639 204.374 327.969 C204.811 327.3 205.248 326.63 205.903 326.184 C206.122 325.738 206.777 325.515 207.432 325.515 C207.869 325.515 208.306 325.738 208.743 325.738 C209.18 325.961 209.398 325.961 209.617 326.184 C209.835 326.407 210.272 326.63 210.49 326.854 C210.709 327.3 210.927 327.523 211.146 327.746 C211.146 328.193 211.364 328.416 212.02 328.639 C212.456 329.085 212.893 329.309 213.549 329.532 C213.985 329.643 214.422 329.866 215.078 330.09 C215.733 330.313 216.17 330.313 216.17 330.313 C217.917 330.313 219.228 330.313 220.757 329.866 C222.068 329.643 223.378 329.309 224.907 328.639 C224.907 328.416 225.126 328.416 225.563 328.193 C225.781 327.969 226 327.969 226.218 327.969 C226.218 327.969 226.436 327.969 226.436 327.969 C226.436 327.969 226.436 328.193 226.436 328.193 C226.655 328.416 226.655 328.416 226.873 328.639 C226.873 328.862 226.873 329.085 226.873 329.532 L226.873 329.532 M232.989 327.523 C232.989 327.077 232.989 326.63 232.771 326.184 C232.771 325.738 232.553 325.515 232.334 325.291 C231.679 325.291 231.024 325.738 230.15 326.407 C229.494 327.077 228.621 327.969 228.184 329.085 C227.31 330.313 226.655 331.875 226.218 333.437 C225.781 335.223 225.126 337.231 224.907 339.128 C226 338.459 226.873 337.566 227.965 336.785 C228.621 335.892 229.713 335 230.368 334.107 C231.242 332.991 231.679 332.098 232.116 330.982 C232.771 329.866 232.989 328.862 232.989 327.523 L232.989 327.523 M256.144 333.884 C256.144 334.33 255.925 335 255.488 336.115 C254.396 337.789 253.304 339.351 251.993 341.137 C250.683 342.922 249.372 344.484 247.843 345.935 C246.533 347.274 245.004 348.836 243.474 349.952 C241.945 351.291 240.198 352.407 238.669 353.3 C237.14 354.304 235.611 354.974 234.082 355.42 C232.334 356.09 230.805 356.313 229.494 356.313 C226 356.313 223.16 355.197 221.412 353.077 C219.665 350.845 218.573 347.497 218.573 343.145 C218.573 341.36 218.791 339.575 219.01 338.012 C219.228 336.339 219.665 334.553 219.883 332.991 C220.539 331.206 221.194 329.643 222.068 327.969 C222.941 326.407 223.815 324.845 224.907 323.283 C225.344 322.613 226 322.167 226.436 321.721 C227.092 321.163 227.747 320.716 228.402 320.27 C229.058 319.824 229.931 319.6 230.368 319.377 C231.242 319.154 231.897 318.931 232.771 318.931 C233.645 318.931 234.737 319.154 235.392 319.6 C236.266 320.047 236.921 320.716 237.14 321.609 C237.795 322.167 238.232 323.06 238.45 323.952 C238.669 325.068 238.669 326.184 238.669 327.3 C238.669 329.309 238.232 331.206 236.921 333.437 C235.392 335.669 233.645 337.789 231.46 340.021 C230.587 340.914 229.713 341.583 228.621 342.476 C227.747 343.369 226.436 344.484 225.344 345.377 C225.344 345.935 225.563 346.381 225.781 346.828 C226 347.274 226.436 347.721 226.655 348.167 C227.31 348.613 227.747 348.836 228.184 349.06 C228.839 349.283 229.713 349.283 230.368 349.283 C231.46 349.283 232.334 349.06 233.426 348.836 C234.519 348.613 235.611 348.167 236.703 347.721 C237.795 347.274 238.669 346.605 239.979 346.158 C240.853 345.489 241.945 344.931 242.601 344.261 C243.911 342.922 245.44 341.583 246.969 340.244 C248.28 338.905 249.591 337.454 250.683 336.115 L252.43 334.33 C253.523 333.214 254.396 332.545 255.27 332.545 C255.707 332.545 255.707 332.768 255.925 332.991 C256.144 333.437 256.144 333.66 256.144 333.884 L256.144 333.884 M265.1 327.523 C265.1 327.077 265.1 326.63 264.881 326.184 C264.881 325.738 264.663 325.515 264.444 325.291 C264.008 325.291 263.134 325.738 262.478 326.407 C261.605 327.077 260.949 327.969 260.294 329.085 C259.42 330.313 258.983 331.875 258.328 333.437 C257.891 335.223 257.454 337.231 257.236 339.128 C258.11 338.459 259.202 337.566 260.076 336.785 C260.949 335.892 261.823 335 262.697 334.107 C263.352 332.991 264.008 332.098 264.444 330.982 C264.881 329.866 265.1 328.862 265.1 327.523 L265.1 327.523 M288.472 333.884 C288.472 334.33 288.254 335 287.599 336.115 C286.725 337.789 285.414 339.351 284.104 341.137 C283.012 342.922 281.482 344.484 279.953 345.935 C278.643 347.274 277.114 348.836 275.585 349.952 C274.056 351.291 272.527 352.407 270.997 353.3 C269.468 354.304 267.721 354.974 266.192 355.42 C264.444 356.09 262.915 356.313 261.605 356.313 C258.11 356.313 255.488 355.197 253.741 353.077 C251.775 350.845 250.683 347.497 250.683 343.145 C250.683 341.36 250.901 339.575 251.12 338.012 C251.338 336.339 251.775 334.553 252.212 332.991 C252.649 331.206 253.304 329.643 254.178 327.969 C255.052 326.407 255.925 324.845 257.236 323.283 C257.454 322.613 258.11 322.167 258.765 321.721 C259.202 321.163 259.857 320.716 260.731 320.27 C261.168 319.824 262.042 319.6 262.697 319.377 C263.352 319.154 264.226 318.931 264.881 318.931 C265.973 318.931 266.847 319.154 267.721 319.6 C268.376 320.047 269.032 320.716 269.468 321.609 C269.905 322.167 270.342 323.06 270.561 323.952 C270.779 325.068 270.997 326.184 270.997 327.3 C270.997 329.309 270.342 331.206 269.032 333.437 C267.721 335.669 265.973 337.789 263.571 340.021 C262.697 340.914 261.823 341.583 260.949 342.476 C259.857 343.369 258.765 344.484 257.454 345.377 C257.454 345.935 257.673 346.381 257.891 346.828 C258.11 347.274 258.547 347.721 258.983 348.167 C259.42 348.613 259.857 348.836 260.513 349.06 C260.949 349.283 261.823 349.283 262.697 349.283 C263.571 349.283 264.444 349.06 265.755 348.836 C266.629 348.613 267.721 348.167 268.813 347.721 C269.905 347.274 270.997 346.605 272.09 346.158 C272.963 345.489 274.056 344.931 274.711 344.261 C276.24 342.922 277.769 341.583 279.08 340.244 C280.39 338.905 281.701 337.454 283.012 336.115 L284.541 334.33 C285.633 333.214 286.725 332.545 287.38 332.545 C287.817 332.545 288.036 332.768 288.254 332.991 C288.472 333.437 288.472 333.66 288.472 333.884 L288.472 333.884 M335 333.437 C335 333.884 335 334.33 334.781 334.776 C334.563 335.223 334.344 335.892 334.126 336.339 C333.907 336.785 333.689 337.231 333.47 337.566 C333.252 338.012 333.034 338.459 332.815 338.682 C332.16 339.575 331.505 340.69 330.631 341.583 C329.757 342.699 329.102 343.592 328.01 344.708 C327.354 345.489 326.48 346.605 325.607 347.497 C324.515 348.39 323.859 349.283 322.767 349.952 C322.33 350.399 321.456 350.845 321.02 351.291 C320.146 351.961 319.49 352.184 318.835 352.63 C318.18 353.077 317.525 353.3 316.651 353.412 C315.995 353.635 315.122 353.635 314.248 353.635 C312.719 353.635 311.408 353.412 310.535 352.63 C309.442 351.961 308.787 351.068 308.132 349.952 C307.476 348.836 307.04 347.497 306.603 345.935 C306.384 344.484 305.947 342.922 305.947 341.36 C305.729 339.128 305.511 337.566 305.074 336.339 C304.637 335 304.2 334.33 303.981 334.33 C303.545 334.33 303.108 334.553 302.671 334.776 C302.234 335 302.016 335.446 301.36 336.115 C300.705 336.785 300.05 337.789 299.176 339.128 C298.302 340.467 296.991 342.476 295.681 344.708 C295.244 345.377 294.807 346.158 293.933 347.274 C293.496 348.167 292.623 349.06 291.967 349.952 C291.094 350.845 290.22 351.738 289.565 352.407 C288.691 353.077 288.254 353.412 287.38 353.635 C284.977 353.077 283.667 350.399 283.667 345.489 C283.667 344.484 283.885 342.476 284.104 340.244 C284.104 339.128 284.322 338.012 284.541 336.785 C284.759 335.669 284.977 334.553 284.977 333.214 C285.196 332.098 285.633 330.982 285.851 329.643 C286.288 328.639 286.725 327.523 286.943 326.63 C287.162 325.961 287.38 325.738 287.817 325.291 C288.254 325.068 288.472 324.845 288.691 324.622 C288.909 324.399 289.346 324.399 289.783 324.175 C290.002 324.175 290.22 324.175 290.657 324.175 C291.094 324.175 291.312 324.175 291.531 324.399 C291.967 324.622 291.967 324.845 292.186 325.291 C292.404 325.515 292.623 325.961 292.841 326.407 C293.06 326.854 293.06 327.3 293.06 327.969 C293.06 328.416 293.06 329.085 292.841 329.532 C292.841 329.866 292.623 330.313 292.623 330.759 C292.404 331.429 292.186 331.875 292.186 332.545 C291.967 332.991 291.967 333.66 291.749 334.553 C291.749 335 291.531 335.669 291.312 336.339 C291.094 337.008 290.875 337.789 290.657 338.682 C290.438 339.351 290.22 340.244 290.22 340.914 C290.22 341.806 290.002 342.476 290.002 342.922 C290.22 342.476 290.657 341.806 291.094 341.137 C291.749 340.467 291.967 339.575 292.623 338.905 C293.278 338.012 293.715 337.231 294.152 336.339 C294.807 335.446 295.244 334.553 295.681 333.884 C296.555 332.768 297.21 331.875 297.865 330.982 C298.739 330.09 299.176 329.532 300.05 328.862 C300.705 328.193 301.579 327.523 302.452 327.3 C303.326 326.854 304.2 326.63 305.511 326.63 C306.603 326.63 307.695 326.854 308.569 327.523 C309.224 328.193 310.098 329.085 310.535 330.09 C310.971 330.982 311.408 332.321 311.627 333.884 C311.845 335.223 312.064 337.008 312.282 338.459 C312.282 339.351 312.501 340.467 312.501 341.36 C312.501 342.253 312.719 343.145 312.937 343.815 C313.374 344.708 313.593 345.377 314.248 345.712 C314.466 346.158 314.903 346.381 315.559 346.381 C316.432 346.381 317.525 346.158 318.617 345.489 C319.709 345.154 320.801 344.261 322.112 343.369 C323.204 342.476 324.515 341.137 325.607 340.021 C326.917 338.682 328.01 337.454 329.539 335.892 C329.757 335.446 330.194 335 330.631 334.33 C331.068 333.884 331.286 333.437 331.505 333.214 C331.941 332.768 332.378 332.545 332.597 332.321 C333.034 332.098 333.252 331.875 333.47 331.875 C333.689 331.875 333.689 331.875 333.907 331.875 C334.126 332.098 334.344 332.098 334.563 332.098 C334.563 332.321 334.781 332.321 334.781 332.545 C335 332.768 335 332.991 335 333.437 L335 333.437 z"/>
<!-- End of RealDRAW generated image, http://www.mediachance.com -->
</svg>
